# xmcd
#
# Track frame offsets:
#	150
#	16951
#	31040
#	51160
#	79891
#	93388
#	116396
#	144584
#	169125
#	186901
#	215508
#	239520
#	250518
#	270212
#	311293
#
# Disc length: 4187 seconds
#
# Revision: 0
# Processed by: cddbd v1.5.2PL0 Copyright (c) Steve Scherf et al.
# Submitted via: EZCDAudioConverter 2.1.7.1
#
DISCID=bd10590f
DTITLE=V/A - Salsa Boricua De Chicago
DYEAR=1900
DGENRE=
TTITLE0=Ebirac All-Stars Featuring La Calandria and Ramito - Plena Matrimonial
TTITLE1=La Justicia - Stone Flower
TTITLE2=Juventud Tipica '78 - Afro Theme
TTITLE3=Juventud Tipica '78 - Ano Nuevo Y Reyes
TTITLE4=Under The Sun Orchestra - Under The Sun [Instrumental Theme]
TTITLE5=La Solucion - A Bailar Son Montuno
TTITLE6=Tipica Leal '79 - Donde Estabas
TTITLE7=La Justicia - Alegre Jibarito
TTITLE8=La Justicia - Las Frutas Del Pais
TTITLE9=La Justicia - Guaguanco Coroco
TTITLE10=La Justicia - Bwana Tambula
TTITLE11=La Solucion - El Gordo Y El Flaco
TTITLE12=La Solucion - Mini Minoso
TTITLE13=La Solucion Featuring Mongo Santamaria - Mozambique
TTITLE14=Ebirac - Radio Spot
EXTD=
EXTT0=
EXTT1=
EXTT2=
EXTT3=
EXTT4=
EXTT5=
EXTT6=
EXTT7=
EXTT8=
EXTT9=
EXTT10=
EXTT11=
EXTT12=
EXTT13=
EXTT14=
PLAYORDER=
